# xmcd
#
# Track frame offsets:
#	150
#	18283
#	36647
#	54363
#	76572
#	100449
#	118672
#	142417
#	163416
#	185297
#
# Disc length: 2692 seconds
#
# Revision: 0
# Processed by: cddbd v1.5.2PL0 Copyright (c) Steve Scherf et al.
# Submitted via: EasyCDDAExtractor 10.0.2.1
#
DISCID=880a820a
DTITLE=Various Artist - Interpretations celebrating the music of Earth Wind a
DTITLE=nd Fire
DYEAR=2007
DGENRE=R&B
TTITLE0=Chaka Khan - Shining Star
TTITLE1=Angie Stone - Be Ever Wonderful
TTITLE2=Kirk Franklin - September
TTITLE3=Ledisi  - Devotion
TTITLE4=The Randy Watson Experience feat Bilal - Can't Hide Love
TTITLE5=Lalah Hathaway - Love's Holiday
TTITLE6=Dwele - That's The Way Of The World
TTITLE7=Mint Condition - After The Love Has Gone
TTITLE8=Musiq Soulchild - Reasons
TTITLE9=Meshell Ndegeocello - Fantasy
EXTD=
EXTT0=
EXTT1=
EXTT2=
EXTT3=
EXTT4=
EXTT5=
EXTT6=
EXTT7=
EXTT8=
EXTT9=
PLAYORDER=
